<svg height="511pt" viewBox="0 0 511.99989 511" width="511pt" xmlns="http://www.w3.org/2000/svg"><path d="m72.003906 134.503906h-62.003906c-5.523438 0-10 4.476563-10 10v112.003906c0 5.523438 4.476562 10 10 10h62.003906c5.519532 0 10-4.476562 10-10v-112.003906c0-5.523437-4.480468-10-10-10zm-10.003906 112.003906h-42v-92.003906h42zm0 0"/><path d="m292.007812 80.5c-2.628906 0-5.210937 1.070312-7.070312 2.929688-1.859375 1.859374-2.929688 4.441406-2.929688 7.070312 0 2.640625 1.070313 5.210938 2.929688 7.070312 1.859375 1.859376 4.441406 2.929688 7.070312 2.929688 2.628907 0 5.210938-1.070312 7.070313-2.929688 1.859375-1.859374 2.929687-4.441406 2.929687-7.070312s-1.066406-5.210938-2.929687-7.070312c-1.859375-1.859376-4.441406-2.929688-7.070313-2.929688zm0 0"/><path d="m398.015625 310.507812c0-48.523437-39.476563-88.003906-88-88.003906-48.527344 0-88.003906 39.480469-88.003906 88.003906 0 48.523438 39.476562 88 88.003906 88 48.523437 0 88-39.476562 88-88zm-156.003906 0c0-37.496093 30.507812-68.003906 68.003906-68.003906s68 30.507813 68 68.003906c0 37.496094-30.503906 68-68 68s-68.003906-30.503906-68.003906-68zm0 0"/><path d="m502.082031 454.625-79.367187-79.367188c11-19.078124 17.300781-41.191406 17.300781-64.75 0-71.683593-58.316406-130.003906-130.003906-130.003906-2.6875 0-5.355469.089844-8.003907.253906v-47.253906c0-5.523437-4.476562-10-10-10-5.523437 0-10 4.476563-10 10v50.046875c-15.15625 3.339844-29.328124 9.324219-42 17.453125v-180.503906h42v24.992188c0 5.523437 4.476563 10 10 10 5.523438 0 10-4.476563 10-10v-34.992188c0-5.523438-4.476562-10-10-10h-62.003906c-5.519531 0-10 4.476562-10 10v206.292969c-11.605468 11.152343-21.148437 24.433593-28 39.207031v-191.5c0-5.523438-4.476562-10-10-10h-62c-5.523437 0-10 4.476562-10 10v192.003906c0 5.523438 4.476563 10 10 10h62c2.539063 0 4.851563-.953125 6.617188-2.511718-5.558594 14.449218-8.613282 30.128906-8.613282 46.515624 0 21.253907 5.246094 42.34375 15.171876 60.996094 2.59375 4.875 8.648437 6.722656 13.527343 4.128906 4.875-2.59375 6.722657-8.648437 4.128907-13.523437-8.390626-15.769531-12.824219-33.613281-12.824219-51.601563 0-60.65625 49.34375-110.003906 110-110.003906s110.003906 49.347656 110.003906 110.003906c0 60.652344-49.347656 110-110.003906 110-14.703125 0-28.972657-2.847656-42.414063-8.46875-5.089844-2.132812-10.953125.269532-13.082031 5.367188-2.132813 5.09375.269531 10.953125 5.367187 13.082031 15.894532 6.652344 32.761719 10.023438 50.128907 10.023438 23.558593 0 45.671875-6.300781 64.746093-17.300781l79.371094 79.371093c6.609375 6.609375 15.292969 9.914063 23.976563 9.914063 8.683593 0 17.367187-3.304688 23.980469-9.917969 13.21875-13.21875 13.21875-34.730469-.003907-47.953125zm-330.078125-208.117188h-42v-172.007812h42zm315.9375 241.929688c-5.425781 5.425781-14.25 5.425781-19.671875 0l-76.738281-76.738281c7.234375-5.839844 13.832031-12.4375 19.667969-19.667969l76.742187 76.738281c5.421875 5.421875 5.421875 14.246094 0 19.667969zm0 0"/><path d="m335.011719 310.507812c0 5.523438 4.476562 10 10 10 5.519531 0 10-4.476562 10-10 0-24.8125-20.1875-45-44.996094-45-5.523437 0-10 4.480469-10 10.003907 0 5.519531 4.476563 10 10 10 13.78125 0 24.996094 11.214843 24.996094 24.996093zm0 0"/><path d="m230.007812 389.9375c-2.632812 0-5.210937 1.070312-7.070312 2.933594-1.859375 1.859375-2.929688 4.4375-2.929688 7.070312 0 2.628906 1.070313 5.207032 2.929688 7.070313 1.859375 1.859375 4.4375 2.929687 7.070312 2.929687 2.628907 0 5.210938-1.070312 7.070313-2.929687 1.859375-1.863281 2.929687-4.441407 2.929687-7.070313 0-2.632812-1.070312-5.210937-2.929687-7.070312-1.859375-1.863282-4.441406-2.933594-7.070313-2.933594zm0 0"/></svg>