<svg id="Layer_1" enable-background="new 0 0 128 128" height="512" viewBox="0 0 128 128" width="512" xmlns="http://www.w3.org/2000/svg"><g><path d="m51.7 27.8-2.3 13.5c-.2 1.4 1.3 2.5 2.5 1.8l12.1-6.3 12.1 6.4c1.3.7 2.8-.4 2.5-1.8l-2.3-13.5 9.8-9.5c1-1 .4-2.8-1-3l-13.5-2-6-12.4c-.6-1.3-2.5-1.3-3.1 0l-6.1 12.3-13.5 2c-1.4.2-2 2-1 3zm6.1-11.2c.6-.1 1.1-.4 1.3-1l4.9-9.8 4.9 9.9c.3.5.7.9 1.3 1l10.9 1.6-7.9 7.7c-.4.4-.6 1-.5 1.5l1.9 10.9-9.8-5.1c-.5-.3-1.1-.3-1.6 0l-9.8 5.1 1.9-10.9c.1-.6-.1-1.1-.5-1.5l-7.9-7.7z"/><path d="m126.4 29.1-10.7-1.6-4.8-9.7c-.6-1.3-2.5-1.3-3.1 0l-4.8 9.7-10.7 1.6c-1.4.2-2 2-1 3l7.8 7.6-1.8 10.7c-.3 1.4 1.3 2.5 2.5 1.8l9.6-5 9.6 5c1.3.7 2.8-.4 2.5-1.8l-1.8-10.7 7.8-7.6c.9-1 .3-2.8-1.1-3zm-9.9 8.7c-.4.4-.6 1-.5 1.5l1.4 8.1-7.3-3.8c-.5-.3-1.1-.3-1.6 0l-7.3 3.8 1.4-8.1c.1-.6-.1-1.1-.5-1.5l-5.9-5.7 8.1-1.2c.6-.1 1.1-.4 1.3-1l3.6-7.4 3.8 7.5c.3.5.7.9 1.3 1l8.1 1.2z"/><path d="m30.8 50.3-1.8-10.6 7.8-7.6c1-1 .4-2.8-1-3l-10.8-1.5-4.8-9.7c-.6-1.3-2.5-1.3-3.1 0l-4.8 9.7-10.7 1.5c-1.4.2-2 2-1 3l7.8 7.6-1.9 10.6c-.3 1.4 1.3 2.5 2.5 1.8l9.6-5 9.6 5c1.3.8 2.8-.3 2.6-1.8zm-5.4-10.9 1.4 8.1-7.3-3.8c-.5-.3-1.1-.3-1.6 0l-7.3 3.8 1.4-8.1c.1-.6-.1-1.1-.5-1.5l-5.9-5.7 8.1-1.2c.6-.1 1.1-.4 1.3-1l3.6-7.4 3.6 7.4c.3.5.7.9 1.3 1l8.1 1.2-5.9 5.7c-.3.3-.4.9-.3 1.5z"/><path d="m64.1 83.4h1.2c1 0 1.7-.8 1.7-1.7s-.8-1.7-1.7-1.7h-.3l.3-1.9c.2-1-.5-1.9-1.4-2-1-.2-1.9.5-2 1.4v.1l-.4 2.8c-.3 1.5 1 3 2.6 3z"/><path d="m70.6 78.2c1.8 0 3.2-1.4 3.2-3.2s-1.4-3.2-3.2-3.2-3.2 1.4-3.2 3.2c0 1.7 1.4 3.2 3.2 3.2z"/><path d="m58.8 84.7c-.7.6-.9 1.7-.2 2.5 2.9 2.9 7.6 3 10.5.1.7-.7.7-2-.2-2.6-.7-.6-1.8-.5-2.4.2-1.5 1.3-3.8 1.3-5.3 0-.5-.7-1.6-.8-2.4-.2z"/><path d="m60.6 75c0-1.8-1.4-3.2-3.2-3.2s-3.2 1.4-3.2 3.2 1.4 3.2 3.2 3.2c1.8 0 3.2-1.5 3.2-3.2z"/><path d="m87.7 102.4c-3.4-.8-6.4-.8-10.5-1.2-1.7-.3-2.8-.7-3.1-2.2l-.5-4.1c3.3-2.8 4.7-6.4 5.5-10.7 3.8 0 6.1-2.9 6.1-5.8 0-2.7-1.8-5-4.5-5.7v-5.3c0-9.2-7.5-16.6-16.6-16.7-9.2 0-16.7 7.5-16.7 16.7v5.3c-3.1.7-5.2 3.7-4.5 6.9.6 2.8 3.1 4.8 6.1 4.6.7 4.4 2.2 7.9 5.5 10.7 0 0-.4 3-.5 4-.1.6-.5 1.2-.9 1.6-1.6 1.4-6.2.4-12.7 2-6.6 1.8-11.1 7.8-11.1 14.6v9.2c0 1 .8 1.7 1.7 1.7h66.2c1 0 1.7-.8 1.7-1.7v-9.3c-.1-6.8-4.6-12.8-11.2-14.6zm-13.8 1.4c.7.3 1.5.6 2.3.7l-3 7.6-6-3.2c.1 0 7.1-5.4 6.7-5.1zm7.7-25.5c0 1.1-.8 2-1.8 2.2l.5-2.3c.1-.6.2-1.2.3-1.8.6.4 1 1.1 1 1.9zm-26.9-20.3c2.5-2.5 5.8-3.9 9.3-3.9 7.3 0 13.1 5.9 13.2 13.2v.7h-9.5c-1.7 0-3.3-.8-4.3-2.2l-2-2.8c-.7-1-2.2-1-2.9 0l-1.9 2.7c-1 1.4-2.6 2.2-4.3 2.2h-1.6v-.7c.1-3.4 1.5-6.8 4-9.2zm-8.5 20.3c0-.8.5-1.6 1.2-2 0 .7.1 1.3.3 1.9l.5 2.4c-1.2-.2-2-1.2-2-2.3zm4.6-3.2v-3.6h1.6c2.9 0 5.5-1.4 7.2-3.7l.5-.7.5.7c1.6 2.3 4.3 3.7 7.2 3.7h9.5v3.6c0 2.4-1.1 5.8-1.5 8.2-.3 1.6-.7 3.1-1.2 4.6-3.8 9.4-17.4 9.4-21 0-.6-1.5-.9-2.9-1.2-4.5-.6-2.7-1.6-5.9-1.6-8.3zm13.2 23.2c2.2 0 4.4-.5 6.4-1.4l.3 2.5c.1 1 .4 1.6.7 2l-7.4 5.6-7.4-5.7c.4-.8.7-1.6.7-2l.3-2.5c2 1.1 4.2 1.6 6.4 1.5zm-9.9 5.6 6.6 5.1-6 3.2-3-7.5c.9-.2 1.7-.4 2.4-.8zm41.3 20.5h-62.8v-7.4c0-5.2 3.5-9.8 8.6-11.2 3.3-.8 5.4-.8 6.9-.9l4.1 10.3c.4 1 1.5 1.4 2.4.9l9.4-4.9 9.4 4.9c.9.5 2.1.1 2.4-.9l4.1-10.3c3.6.3 4.8.3 7 .8 5 1.4 8.5 6 8.6 11.2z"/></g></svg>