<svg id="Layer_1" height="512" viewBox="0 0 512 512" width="512" xmlns="http://www.w3.org/2000/svg" data-name="Layer 1"><path d="m88.24 337.87a6 6 0 0 0 -6 6v5.34a6 6 0 0 0 12 0v-5.34a6 6 0 0 0 -6-6z"/><path d="m88.24 362.36a6 6 0 0 0 -6 6v40.35a6 6 0 0 0 12 0v-40.35a6 6 0 0 0 -6-6z"/><path d="m404.14 72.86h-4.521a263.1 263.1 0 0 0 -15.619-61.073 6 6 0 0 0 -7.644-3.466l-130.704 47.549h-56.3a30.264 30.264 0 0 0 -30.232 30.23v41.96a30.262 30.262 0 0 0 29.13 30.2v13.186l-126.499 50.624a5.964 5.964 0 0 0 -3.083 2.773l-31.431 59.79a6 6 0 0 0 2.494 8.09l31.319 16.659v115.388a6 6 0 0 0 3.388 5.4l151.541 73.27a6 6 0 0 0 5.222 0l151.54-73.27a6 6 0 0 0 3.389-5.4v-115.388l31.317-16.654a6 6 0 0 0 2.493-8.09l-31.44-59.79a5.964 5.964 0 0 0 -3.083-2.773l-128.567-51.462v-11.888l129.509 47.1a6 6 0 0 0 7.641-3.462 262.774 262.774 0 0 0 15.618-61.073h4.519a34.215 34.215 0 1 0 0-68.43zm-214.79-4.99h51.36v17.01h-69.528a18.239 18.239 0 0 1 18.168-17.01zm-18.23 29.01h69.59v20.4h-69.59zm.062 32.4h69.528v17.01h-51.36a18.239 18.239 0 0 1 -18.168-17.01zm63.668 29.01v70.824l-34.6 10.61v-81.434zm-22.26 330.184-139.54-67.468v-105.243l110.522 58.775a6 6 0 0 0 8.184-2.615l20.834-41.668zm151.54-67.468-139.54 67.468v-158.219l20.834 41.668a6 6 0 0 0 8.183 2.615l110.523-58.775zm32.41-136.069-143.135 76.117-26.764-53.528 143.973-71.893zm-37.989-56.693-139.961 69.889-90.339-45.108a6 6 0 1 0 -5.361 10.736l87.648 43.765-26.764 53.528-143.134-76.118 25.918-49.3 29.028 14.495a6 6 0 1 0 5.361-10.736l-22.326-11.151 109.629-43.871v63.467a6 6 0 0 0 7.759 5.736l46.6-14.29a6 6 0 0 0 4.242-5.736v-50.012zm-15.94-47.458-89.9-32.7v-82.014l89.9-32.705a252.692 252.692 0 0 1 0 147.419zm45.736-46.186v.008a250.528 250.528 0 0 1 -13.467 57.915l-20.972-7.627a264.776 264.776 0 0 0 0-155.636l20.973-7.63a250.64 250.64 0 0 1 13.466 112.97zm31.5-11.815a22.1 22.1 0 0 1 -15.711 6.507h-3.224c.629-7.389.954-14.832.954-22.21s-.325-14.831-.954-22.22h3.224a22.213 22.213 0 0 1 15.711 37.923z"/><path d="m479.45 101.08h-24.43a6 6 0 0 0 0 12h24.43a6 6 0 0 0 0-12z"/><path d="m448.246 81.21a5.978 5.978 0 0 0 3.344-1.022l21.99-14.8a6 6 0 1 0 -6.7-9.955l-21.99 14.8a6 6 0 0 0 3.355 10.978z"/><path d="m472.1 148.9-24.43-11.1a6 6 0 0 0 -4.965 10.925l24.43 11.1a6 6 0 1 0 4.965-10.925z"/></svg>